<svg width="1279" height="296" viewBox="0 0 1279 296" fill="none" xmlns="http://www.w3.org/2000/svg">
<rect width="1279" height="296" fill="white"/>
<path d="M0 0H1279V255.699C1279 255.699 929.5 320.497 619.5 272.197C309.5 223.896 0 296 0 296V0Z" fill="#EEF5FC"/>
<g filter="url(#filter0_d_3528_3174)">
<path d="M877.89 231.329H792.379C788.09 231.329 784.763 227.66 785.274 223.491L795.793 137.502C796.223 133.98 799.275 131.329 802.898 131.329H888.409C892.698 131.329 896.025 134.998 895.515 139.167L884.996 225.156C884.566 228.678 881.513 231.329 877.89 231.329V231.329Z" fill="white"/>
</g>
<g filter="url(#filter1_d_3528_3174)">
<path d="M988.235 231.329H902.724C898.435 231.329 895.108 227.66 895.618 223.491L906.137 137.502C906.567 133.98 909.62 131.329 913.243 131.329H998.754C1003.04 131.329 1006.37 134.998 1005.86 139.167L995.34 225.156C994.91 228.678 991.858 231.329 988.235 231.329V231.329Z" fill="white"/>
</g>
<path d="M952.508 164.249C940.251 165.363 936.258 175.856 935.793 180.963L965.879 182.078C967.439 168.26 957.615 164.435 952.508 164.249Z" fill="#D0E5F7"/>
<path d="M965.322 181.242C954.625 164.75 941.365 174.37 936.072 181.242C937.409 190.602 945.544 193.313 949.444 193.499C958.581 193.276 963.837 185.235 965.322 181.242Z" fill="#8EBFED"/>
<path d="M942.479 199.628L943.036 192.663C948.162 195.338 953.344 193.778 955.294 192.663V198.513C955.071 202.748 950.372 204.363 948.051 204.642C944.262 204.642 942.758 201.299 942.479 199.628Z" fill="#D0E5F7"/>
<path d="M952.341 155.836C952.404 155.254 952.923 154.777 953.516 154.777C954.109 154.777 954.522 155.254 954.458 155.836L954.013 160.07C953.95 160.652 953.431 161.129 952.838 161.129C952.246 161.129 951.833 160.652 951.896 160.07L952.341 155.836Z" fill="#253640"/>
<path d="M927.549 180.183C926.967 180.183 926.543 179.707 926.607 179.125C926.67 178.542 927.189 178.066 927.782 178.066H932.006C932.588 178.066 933.011 178.542 932.948 179.125C932.884 179.707 932.366 180.183 931.773 180.183H927.549Z" fill="#253640"/>
<path d="M969.892 180.183C969.31 180.183 968.887 179.707 968.95 179.125C969.014 178.542 969.532 178.066 970.125 178.066H974.359C974.942 178.066 975.365 178.542 975.301 179.125C975.238 179.707 974.719 180.183 974.126 180.183H969.892Z" fill="#253640"/>
<path d="M933.795 163.998C933.424 163.585 933.498 162.918 933.953 162.505C934.409 162.092 935.076 162.092 935.446 162.505L938.124 165.501C938.495 165.914 938.421 166.58 937.965 166.993C937.51 167.406 936.843 167.406 936.473 166.993L933.795 163.998Z" fill="#253640"/>
<path d="M971.279 163.998C971.734 163.585 971.808 162.918 971.438 162.505C971.067 162.092 970.4 162.092 969.945 162.505L966.632 165.501C966.177 165.914 966.102 166.58 966.473 166.993C966.843 167.406 967.51 167.406 967.966 166.993L971.279 163.998Z" fill="#253640"/>
<path d="M930.629 194.072C930.174 194.485 930.1 195.152 930.471 195.564C930.841 195.977 931.508 195.977 931.963 195.564L935.277 192.569C935.732 192.156 935.806 191.489 935.435 191.076C935.065 190.663 934.398 190.663 933.943 191.076L930.629 194.072Z" fill="#253640"/>
<path d="M968.124 194.072C968.495 194.485 968.421 195.152 967.966 195.564C967.51 195.977 966.843 195.977 966.473 195.564L963.795 192.569C963.424 192.156 963.498 191.489 963.954 191.076C964.409 190.663 965.076 190.663 965.446 191.076L968.124 194.072Z" fill="#253640"/>
<path fill-rule="evenodd" clip-rule="evenodd" d="M956.882 193.172C962.196 190.504 966.187 185.222 966.822 179.125C967.743 170.36 961.381 163.246 952.616 163.246C943.851 163.246 935.986 170.36 935.065 179.125C934.43 185.222 937.299 190.504 942.062 193.172L941.427 199.238C941.554 202.487 943.883 205.06 947.122 205.515L947.006 206.648C946.985 206.881 947.037 207.103 947.143 207.272C947.313 207.537 947.598 207.706 947.948 207.706C948.53 207.706 949.059 207.23 949.123 206.648L949.239 205.515C952.574 205.06 955.443 202.487 956.247 199.238L956.882 193.172ZM954.077 199.238H943.597C943.841 201.651 945.809 203.472 948.392 203.472C950.975 203.472 953.325 201.651 954.077 199.238ZM954.67 194.104C952.955 194.686 951.134 195.003 949.282 195.003C947.429 195.003 945.682 194.686 944.084 194.104L943.766 197.12H954.352L954.67 194.104ZM952.722 192.526C958.946 191.097 964.028 185.645 964.716 179.135C965.51 171.535 960.005 165.374 952.404 165.374C944.804 165.374 937.997 171.535 937.193 179.135C936.505 185.645 940.453 191.097 946.371 192.526L947.217 184.428H945.1C942.761 184.428 941.067 182.533 941.311 180.194C941.554 177.854 943.65 175.959 945.989 175.959C948.329 175.959 950.023 177.854 949.779 180.194L948.445 192.854C948.795 192.886 949.144 192.897 949.504 192.897C949.864 192.897 950.213 192.886 950.563 192.854L951.896 180.194C952.14 177.854 954.236 175.959 956.575 175.959C958.915 175.959 960.608 177.854 960.365 180.194C960.121 182.533 958.025 184.428 955.686 184.428H953.569L952.722 192.526ZM947.44 182.311H945.323C944.158 182.311 943.301 181.358 943.428 180.194C943.555 179.029 944.603 178.077 945.767 178.077C946.932 178.077 947.789 179.029 947.662 180.194L947.44 182.311ZM953.791 182.311L954.013 180.194C954.141 179.029 955.188 178.077 956.353 178.077C957.517 178.077 958.375 179.029 958.248 180.194C958.121 181.358 957.073 182.311 955.908 182.311H953.791Z" fill="#253640"/>
<g filter="url(#filter2_d_3528_3174)">
<path d="M1098.58 231.329H1013.07C1008.78 231.329 1005.45 227.66 1005.96 223.491L1016.48 137.502C1016.91 133.98 1019.96 131.329 1023.59 131.329H1109.1C1113.39 131.329 1116.71 134.998 1116.2 139.167L1105.69 225.156C1105.26 228.678 1102.2 231.329 1098.58 231.329V231.329Z" fill="white"/>
</g>
<path d="M1060.38 185.644H1066.64V206.537H1055.85L1060.38 185.644Z" fill="#D0E5F7"/>
<path d="M1062.12 168.581L1063.86 156.741C1066.09 156.741 1068.5 160.688 1069.43 162.661L1068.73 168.581L1065.25 171.367L1062.12 168.581Z" fill="#8EBFED"/>
<path d="M1072.71 177.286L1082.1 184.714C1080.98 186.644 1076.36 186.762 1074.18 186.579L1069.4 183.016L1068.73 178.607L1072.71 177.286Z" fill="#8EBFED"/>
<path d="M1059.02 183.095L1048.54 189.126C1047.25 187.305 1049.55 183.013 1050.63 181.117L1055.21 177.688L1059.49 178.928L1059.02 183.095Z" fill="#8EBFED"/>
<path d="M1070.01 173.804C1069.12 175.969 1067 177.554 1064.68 177.554C1062.35 177.554 1060.54 175.969 1060.11 173.804C1059.9 174.318 1059.75 174.854 1059.71 175.411C1059.4 178.369 1061.5 180.769 1064.36 180.769C1067.23 180.769 1069.81 178.369 1070.1 175.411C1070.16 174.854 1070.12 174.318 1070.01 173.804V173.804Z" fill="#D0E5F7"/>
<path fill-rule="evenodd" clip-rule="evenodd" d="M1061.32 167.854C1061.19 168.992 1061.53 170.043 1062.16 170.794C1060.09 171.889 1058.56 174.013 1058.31 176.438C1058.31 176.503 1058.31 176.546 1058.31 176.61C1057.18 176.267 1055.85 176.438 1054.68 177.189C1054.68 177.189 1049.98 180.194 1048.6 182.297C1047.48 184.014 1046.67 186.331 1046.46 188.413C1046.38 189.293 1046.63 190.13 1047.03 190.859C1047.25 191.224 1047.73 191.331 1048.12 191.074L1058.69 184.293C1059.62 183.692 1060.3 182.812 1060.66 181.868C1061.59 182.511 1062.74 182.898 1063.99 182.898C1065.24 182.898 1066.4 182.554 1067.42 181.932C1067.57 182.747 1067.97 183.52 1068.61 184.099C1068.61 184.099 1072.38 187.469 1074.64 187.962C1076.51 188.37 1078.86 188.241 1080.89 187.619C1081.74 187.361 1082.51 186.782 1083.12 186.095C1083.44 185.752 1083.44 185.237 1083.12 184.958L1074.62 177.404C1073.63 176.524 1072.27 176.267 1071 176.588V176.46C1071.27 174.035 1070.15 171.932 1068.33 170.816C1069.13 170.043 1069.69 169.013 1069.79 167.876C1069.79 167.876 1070.34 162.511 1069.52 160.365C1068.84 158.605 1067.44 156.846 1065.85 155.687C1065.17 155.193 1064.32 155 1063.46 155C1063.01 155 1062.63 155.365 1062.57 155.815L1061.32 167.876V167.854ZM1065.11 172.146C1062.78 172.146 1060.68 174.078 1060.43 176.438C1060.17 178.799 1061.89 180.73 1064.22 180.73C1066.55 180.73 1068.65 178.799 1068.9 176.438C1069.16 174.078 1067.44 172.146 1065.11 172.146ZM1063.44 167.854L1064.49 157.661C1064.49 157.661 1066.8 159.657 1067.5 161.416C1068.39 163.691 1067.67 167.854 1067.67 167.854C1067.55 169.035 1066.51 170 1065.32 170C1064.13 170 1063.31 169.035 1063.44 167.854ZM1048.75 188.22L1057.67 182.49C1058.71 181.825 1059.09 180.494 1058.54 179.507C1057.99 178.52 1056.7 178.262 1055.66 178.928C1055.66 178.928 1051.89 181.031 1050.42 183.262C1049.3 184.979 1048.75 188.22 1048.75 188.22V188.22ZM1073.12 179.056L1080.3 185.451C1080.3 185.451 1077.1 186.181 1075.26 185.773C1072.86 185.237 1070.13 182.404 1070.13 182.404C1069.3 181.653 1069.28 180.301 1070.13 179.378C1070.96 178.455 1072.31 178.305 1073.14 179.056H1073.12Z" fill="#253640"/>
<path d="M1036.01 206.885C1036.07 206.3 1036.6 205.841 1037.18 205.841H1055.05L1059.22 185.887C1059.33 185.365 1059.84 184.947 1060.37 184.947C1060.98 184.947 1061.43 185.47 1061.3 186.096L1057.18 205.841H1065.68L1065.79 186.096C1065.79 185.49 1066.34 184.947 1066.96 184.947C1067.51 184.947 1067.91 185.344 1067.91 185.887L1067.81 205.841H1085.88C1086.47 205.841 1086.9 206.3 1086.83 206.885C1086.77 207.47 1086.24 207.93 1085.67 207.93H1036.96C1036.37 207.93 1035.94 207.47 1036.01 206.885Z" fill="#253640"/>
<g filter="url(#filter3_d_3528_3174)">
<path d="M960.573 121.329H875.062C870.773 121.329 867.445 117.66 867.956 113.491L878.475 27.502C878.905 23.98 881.958 21.3291 885.581 21.3291H971.092C975.381 21.3291 978.708 24.9978 978.197 29.167L967.678 115.156C967.248 118.678 964.196 121.329 960.573 121.329Z" fill="white"/>
</g>
<path d="M932.103 66.7847C932.103 73.708 926.49 79.3205 919.567 79.3205C912.644 79.3205 907.031 73.708 907.031 66.7847C907.031 59.8613 912.644 54.2489 919.567 54.2489C926.49 54.2489 932.103 59.8613 932.103 66.7847Z" fill="#8EBFED"/>
<path d="M915.11 66.7847L904.245 85.4492L916.503 86.2849L936.56 66.7847H915.11Z" fill="#D0E5F7"/>
<path d="M920.96 96.3135L921.796 88.792H928.203L927.088 96.3135H920.96Z" fill="#D0E5F7"/>
<path d="M935.724 67.0633L916.503 85.4492H921.517V89.6278H928.203L928.76 85.4492H946.589L939.346 67.0633H935.724Z" fill="#8EBFED"/>
<path fill-rule="evenodd" clip-rule="evenodd" d="M915.922 65.949C915.117 65.949 914.334 66.4042 913.9 67.124L902.721 85.5857C902.298 86.2843 902.721 87.1206 903.505 87.1206H920.749C920.812 87.1206 920.855 87.1629 920.844 87.2265L919.849 96.6478C919.786 97.2301 920.209 97.7064 920.791 97.7064C921.373 97.7064 921.903 97.2301 921.966 96.6478L922.961 87.2265C922.961 87.1629 923.025 87.1206 923.078 87.1206H927.1C927.164 87.1206 927.206 87.1629 927.196 87.2265L926.201 96.6478C926.137 97.2301 926.56 97.7064 927.143 97.7064C927.725 97.7064 928.254 97.2301 928.318 96.6478L929.313 87.2265C929.313 87.1629 929.376 87.1206 929.429 87.1206H946.663C947.446 87.1206 948.05 86.2949 947.774 85.5857L940.481 67.1134C940.195 66.3936 939.507 65.9384 938.713 65.9384H915.922V65.949ZM938.967 68.6484C938.829 68.2884 938.48 68.0661 938.078 68.0661H932.097C932.023 68.0661 931.97 68.1297 931.98 68.2038L932.764 72.2264C932.764 72.2264 932.806 72.3005 932.859 72.3005H940.227C940.301 72.3005 940.364 72.2158 940.333 72.1523L938.956 68.6589L938.967 68.6484ZM941.264 74.4706C941.264 74.4706 941.211 74.407 941.179 74.407H933.346C933.272 74.407 933.219 74.4706 933.229 74.5447L934.013 78.5673C934.013 78.5673 934.055 78.6414 934.108 78.6414H942.746C942.82 78.6414 942.884 78.5567 942.852 78.4932L941.264 74.4706ZM943.773 80.822C943.773 80.822 943.72 80.7585 943.688 80.7585H934.584C934.51 80.7585 934.457 80.822 934.468 80.8961L935.251 84.9188C935.251 84.9188 935.294 84.9929 935.347 84.9929H945.255C945.329 84.9929 945.393 84.9082 945.361 84.8447L943.773 80.822ZM932.234 80.7585C932.234 80.7585 932.319 80.7903 932.33 80.8326L933.113 84.8552C933.124 84.9188 933.071 84.9929 932.997 84.9929H917.615C917.541 84.9929 917.499 84.9293 917.531 84.8552L919.161 80.8326C919.161 80.8326 919.224 80.7585 919.267 80.7585H932.234ZM930.996 74.407C930.996 74.407 931.081 74.4388 931.091 74.4811L931.875 78.5038C931.885 78.5673 931.832 78.6414 931.758 78.6414H920.188C920.114 78.6414 920.071 78.5779 920.103 78.5038L921.733 74.4811C921.733 74.4811 921.797 74.407 921.839 74.407H930.996ZM929.757 68.0556C929.757 68.0556 929.842 68.0873 929.853 68.1297L930.636 72.1523C930.647 72.2158 930.594 72.2899 930.52 72.2899H922.76C922.686 72.2899 922.644 72.2264 922.675 72.1523L924.306 68.1297C924.306 68.1297 924.369 68.0556 924.412 68.0556H929.757ZM922.157 68.1932C922.188 68.1297 922.136 68.0556 922.072 68.0556H916.091C915.689 68.0556 915.297 68.2779 915.085 68.6378L912.968 72.1311C912.926 72.2052 912.968 72.2793 913.042 72.2793H920.41C920.41 72.2793 920.505 72.2475 920.516 72.2052L922.146 68.1826L922.157 68.1932ZM919.584 74.5447C919.616 74.4811 919.563 74.407 919.5 74.407H911.666C911.666 74.407 911.592 74.4282 911.56 74.4706L909.126 78.4932C909.083 78.5673 909.126 78.6414 909.2 78.6414H917.838C917.838 78.6414 917.933 78.6096 917.944 78.5673L919.574 74.5447H919.584ZM917.012 80.8961C917.044 80.8326 916.991 80.7585 916.927 80.7585H907.824C907.824 80.7585 907.749 80.7797 907.718 80.822L905.283 84.8447C905.241 84.9188 905.283 84.9929 905.357 84.9929H915.265C915.265 84.9929 915.361 84.9611 915.371 84.9188L917.001 80.8961H917.012Z" fill="#002E54"/>
<path d="M929.673 58.1261C926.19 52.9708 918.949 51.6793 912.989 55.3314C907.04 58.9835 904.51 66.2665 907.04 72.0146C907.262 72.5334 907.908 72.6604 908.438 72.3428C908.956 72.0252 909.157 71.3689 908.946 70.8502C906.955 66.0866 909.062 60.1162 913.974 57.1098C918.886 54.1034 924.835 55.1197 927.778 59.3011C928.095 59.7563 928.731 59.8939 929.26 59.5763C929.779 59.2587 929.99 58.5918 929.683 58.1366L929.673 58.1261Z" fill="#002E54"/>
<path d="M918.843 45.8359C918.907 45.2537 919.426 44.7773 920.018 44.7773C920.611 44.7773 921.024 45.2537 920.961 45.8359L920.516 50.0703C920.452 50.6525 919.934 51.1288 919.341 51.1288C918.748 51.1288 918.335 50.6525 918.399 50.0703L918.843 45.8359Z" fill="#002E54"/>
<path d="M898.508 68.0661C897.926 68.0661 897.502 67.5898 897.566 67.0076C897.629 66.4253 898.148 65.949 898.741 65.949H902.965C903.547 65.949 903.97 66.4253 903.907 67.0076C903.843 67.5898 903.325 68.0661 902.732 68.0661H898.508Z" fill="#002E54"/>
<path d="M903.589 52.939C903.219 52.5262 903.293 51.8593 903.748 51.4464C904.203 51.0336 904.87 51.0336 905.241 51.4464L907.919 54.4422C908.289 54.855 908.215 55.5219 907.76 55.9348C907.305 56.3476 906.638 56.3476 906.267 55.9348L903.589 52.939Z" fill="#002E54"/>
<path d="M933.706 50.8218C934.161 50.409 934.235 49.7421 933.865 49.3292C933.494 48.9164 932.827 48.9164 932.372 49.3292L929.059 52.325C928.603 52.7379 928.529 53.4048 928.9 53.8176C929.27 54.2305 929.937 54.2305 930.392 53.8176L933.706 50.8218Z" fill="#002E54"/>
<g filter="url(#filter4_d_3528_3174)">
<path d="M1070.92 121.329H985.406C981.117 121.329 977.79 117.66 978.301 113.491L988.82 27.502C989.25 23.98 992.303 21.3291 995.925 21.3291H1081.44C1085.73 21.3291 1089.05 24.9978 1088.54 29.167L1078.02 115.156C1077.59 118.678 1074.54 121.329 1070.92 121.329V121.329Z" fill="white"/>
</g>
<path d="M1016.21 59.598C1016.57 56.0877 1019.72 53.2463 1023.23 53.2463H1046.52C1050.03 53.2463 1052.57 56.0877 1052.2 59.598L1048.86 91.3567C1048.5 94.867 1045.35 97.7084 1041.84 97.7084H1018.56C1015.05 97.7084 1012.5 94.867 1012.88 91.3567L1016.21 59.598Z" fill="#8EBFED"/>
<path d="M1016.88 53.2463C1017.37 48.5704 1021.56 44.7773 1026.24 44.7773H1045.63C1050.3 44.7773 1053.7 48.5704 1053.21 53.2463L1050.09 82.8877C1049.6 87.5635 1045.41 91.3567 1040.73 91.3567H1021.34C1016.66 91.3567 1013.27 87.5635 1013.76 82.8877L1016.88 53.2463Z" fill="#D0E5F7"/>
<path d="M1036.71 45.8325H1051.53L1051.87 62.7704H1024.35L1036.71 45.8325Z" fill="#8EBFED"/>
<path d="M1037.31 72.3015C1036.72 72.3015 1036.29 71.8256 1036.35 71.2463C1036.42 70.667 1036.94 70.1911 1037.53 70.1911H1046.08C1046.67 70.1911 1047.1 70.667 1047.04 71.2463C1046.97 71.8256 1046.45 72.3015 1045.86 72.3015H1037.31Z" fill="#253640"/>
<path d="M1046.46 56.4256C1046.39 57.0118 1045.87 57.4808 1045.28 57.4808C1044.68 57.4808 1044.26 57.0049 1044.32 56.4256L1044.77 52.1911C1044.83 51.6049 1045.35 51.136 1045.95 51.136C1046.54 51.136 1046.97 51.6118 1046.9 52.1911L1046.46 56.4256Z" fill="#253640"/>
<path d="M1035.75 87.1222C1035.16 87.1222 1034.73 86.6463 1034.79 86.067C1034.86 85.4877 1035.38 85.0118 1035.97 85.0118H1044.52C1045.11 85.0118 1045.54 85.4877 1045.48 86.067C1045.42 86.6463 1044.89 87.1222 1044.3 87.1222H1035.75Z" fill="#253640"/>
<path d="M1035.31 91.3567C1034.72 91.3567 1034.29 90.8808 1034.35 90.2946C1034.42 89.7084 1034.94 89.2394 1035.53 89.2394H1044.08C1044.67 89.2394 1045.1 89.7153 1045.04 90.2946C1044.97 90.8739 1044.45 91.3567 1043.86 91.3567H1035.31Z" fill="#253640"/>
<path d="M1024.04 76.536C1024.64 76.536 1025.16 76.0601 1025.22 75.4808L1025.55 72.3084H1028.76C1029.35 72.3084 1029.88 71.8325 1029.94 71.2532C1030 70.6739 1029.57 70.198 1028.98 70.198H1025.77L1026.1 67.0256C1026.17 66.4394 1025.74 65.9704 1025.15 65.9704C1024.55 65.9704 1024.03 66.4463 1023.97 67.0256L1023.64 70.198H1020.43C1019.84 70.198 1019.31 70.6739 1019.25 71.2532C1019.19 71.8325 1019.62 72.3084 1020.21 72.3084H1023.42L1023.08 75.4808C1023.02 76.067 1023.45 76.536 1024.04 76.536Z" fill="#253640"/>
<path d="M1026.21 91.9222C1026.67 91.5084 1026.74 90.8394 1026.37 90.4256L1024.34 88.1773L1026.84 85.9291C1027.3 85.5153 1027.37 84.8463 1027 84.4325C1026.63 84.0187 1025.95 84.0187 1025.49 84.4325L1022.99 86.6808L1020.96 84.4325C1020.59 84.0187 1019.91 84.0187 1019.45 84.4325C1018.99 84.8463 1018.92 85.5153 1019.29 85.9291L1021.32 88.1773L1018.82 90.4256C1018.35 90.8394 1018.28 91.5084 1018.66 91.9222C1019.03 92.336 1019.7 92.336 1020.17 91.9222L1022.67 89.6739L1024.7 91.9222C1025.07 92.336 1025.75 92.336 1026.21 91.9222Z" fill="#253640"/>
<path fill-rule="evenodd" clip-rule="evenodd" d="M1017.22 50.0739C1017.52 47.1498 1020.16 44.7773 1023.11 44.7773H1048.75C1051.7 44.7773 1053.84 47.1498 1053.54 50.0739L1049.09 92.4187C1048.78 95.3429 1046.15 97.7153 1043.19 97.7153H1017.55C1014.59 97.7153 1012.46 95.3429 1012.76 92.4187L1017.22 50.0739ZM1017.9 63.8325L1016.35 78.6532H1031.3L1032.86 63.8325H1017.9ZM1016.13 80.7704L1014.9 92.4118C1014.72 94.1635 1016.01 95.5911 1017.77 95.5911H1029.53L1031.08 80.7704H1016.13ZM1043.42 95.5911C1045.19 95.5911 1046.77 94.1704 1046.95 92.4118L1048.17 80.7704H1033.22L1031.66 95.5911H1043.42ZM1048.4 78.6532L1049.96 63.8325H1035L1033.44 78.6532H1048.4ZM1050.18 61.7153H1018.13L1019.35 50.0739C1019.53 48.3222 1021.11 46.8946 1022.88 46.8946H1048.53C1050.3 46.8946 1051.59 48.3153 1051.4 50.0739L1050.18 61.7153Z" fill="#253640"/>
<g filter="url(#filter5_d_3528_3174)">
<path d="M303.811 121.329H220.014C215.811 121.329 212.55 117.66 213.051 113.491L223.359 27.502C223.78 23.98 226.772 21.3291 230.322 21.3291H314.119C318.323 21.3291 321.583 24.9978 321.083 29.167L310.774 115.156C310.353 118.678 307.361 121.329 303.811 121.329Z" fill="white"/>
</g>
<path d="M245.069 83.398L247.828 53.0531H244.035L240.586 87.1911L258.173 88.2255L261.966 94.4324H266.793L271.621 88.2255L289.552 87.1911L293.345 53.0531H289.552L285.414 84.0876H269.207L264.724 89.6049L261.276 83.398H245.069Z" fill="#8EBFED"/>
<path fill-rule="evenodd" clip-rule="evenodd" d="M263.041 47.5359C264.989 47.5359 266.752 48.4481 267.747 50.0237L268.825 51.6823L270.235 50.0237C271.582 48.4481 273.531 47.5359 275.48 47.5359H288.956C290.096 47.5359 290.925 48.4688 290.801 49.6091L290.573 51.6823H292.646C293.786 51.6823 294.616 52.6153 294.491 53.7555L291.008 86.9269C290.884 88.0672 289.868 89.0001 288.707 89.0001H273.655C272.08 89.0001 270.546 89.8916 269.696 91.3014L267.664 94.66C267.457 95.0125 267.063 95.2405 266.669 95.2405H261.734C261.341 95.2405 261.009 95.0125 260.864 94.66L259.537 91.3014C258.977 89.8916 257.63 89.0001 256.075 89.0001H241.065C239.924 89.0001 239.095 88.0672 239.219 86.9269L242.702 53.7555C242.827 52.6153 243.843 51.6823 245.004 51.6823H247.077L247.305 49.6091C247.429 48.4688 248.445 47.5359 249.606 47.5359H263.082H263.041ZM268.908 89.2282C269.758 87.8184 271.292 86.9269 272.868 86.9269H287.919C288.5 86.9269 288.997 86.4708 289.059 85.8903L292.335 54.7921C292.397 54.2116 291.983 53.7555 291.402 53.7555H290.366L287.318 82.7805C287.194 83.9208 286.178 84.8537 285.017 84.8537H270.629C269.924 84.8537 269.219 85.2476 268.846 85.8903L266.275 90.1404C265.922 90.7002 265.321 91.0734 264.678 91.0734C264.036 91.0734 263.497 90.7209 263.269 90.1404L261.589 85.8903C261.341 85.2476 260.739 84.8537 260.014 84.8537H245.646C244.506 84.8537 243.677 83.9208 243.801 82.7805L246.849 53.7555H245.812C245.232 53.7555 244.734 54.2116 244.672 54.7921L241.396 85.8903C241.334 86.4708 241.749 86.9269 242.329 86.9269H257.381C258.956 86.9269 260.304 87.8184 260.843 89.2282L262.398 93.1466H266.544L268.929 89.2282H268.908ZM266.15 86.9269L269.654 53.7555L270.007 53.2994C271.79 50.9982 274.526 49.6091 277.304 49.6091H287.733C288.313 49.6091 288.728 50.0652 288.666 50.6457L285.39 81.7439C285.328 82.3244 284.809 82.7805 284.25 82.7805H271.271C269.696 82.7805 268.161 83.672 267.311 85.0818L266.192 86.9269H266.15ZM246.89 82.7805C246.31 82.7805 245.895 82.3244 245.957 81.7439L249.233 50.6457C249.295 50.0652 249.813 49.6091 250.373 49.6091H260.802C263.58 49.6091 266.026 50.9982 267.311 53.2994L267.56 53.7555L264.077 86.9269L263.352 85.0818C262.792 83.672 261.444 82.7805 259.889 82.7805H246.89Z" fill="#253640"/>
<path d="M250.664 56.8653C250.726 56.2848 251.244 55.8287 251.804 55.8287H264.243C264.824 55.8287 265.238 56.2848 265.176 56.8653C265.114 57.4458 264.596 57.902 264.036 57.902H251.596C251.016 57.902 250.601 57.4458 250.664 56.8653Z" fill="#253640"/>
<path d="M271.396 56.8653C271.458 56.2848 271.976 55.8287 272.536 55.8287H284.975C285.556 55.8287 285.97 56.2848 285.908 56.8653C285.846 57.4458 285.328 57.902 284.768 57.902H272.329C271.748 57.902 271.333 57.4458 271.396 56.8653Z" fill="#253640"/>
<path d="M250 63.085C250.062 62.5045 250.581 62.0484 251.14 62.0484H263.58C264.16 62.0484 264.575 62.5045 264.513 63.085C264.45 63.6655 263.932 64.1216 263.372 64.1216H250.933C250.353 64.1216 249.938 63.6655 250 63.085Z" fill="#253640"/>
<path d="M270.732 63.085C270.794 62.5045 271.313 62.0484 271.872 62.0484H284.312C284.892 62.0484 285.307 62.5045 285.245 63.085C285.183 63.6655 284.664 64.1216 284.104 64.1216H271.665C271.085 64.1216 270.67 63.6655 270.732 63.085Z" fill="#253640"/>
<path d="M249.357 69.3046C249.42 68.7241 249.938 68.268 250.498 68.268H262.937C263.517 68.268 263.932 68.7241 263.87 69.3046C263.808 69.8851 263.289 70.3412 262.73 70.3412H250.29C249.71 70.3412 249.295 69.8851 249.357 69.3046Z" fill="#253640"/>
<path d="M270.09 69.3046C270.152 68.7241 270.67 68.268 271.23 68.268H283.669C284.25 68.268 284.664 68.7241 284.602 69.3046C284.54 69.8851 284.022 70.3412 283.462 70.3412H271.022C270.442 70.3412 270.027 69.8851 270.09 69.3046Z" fill="#253640"/>
<path d="M248.694 75.5243C248.756 74.9438 249.274 74.4877 249.834 74.4877H262.274C262.854 74.4877 263.269 74.9438 263.206 75.5243C263.144 76.1048 262.626 76.5609 262.066 76.5609H249.627C249.046 76.5609 248.632 76.1048 248.694 75.5243Z" fill="#253640"/>
<path d="M269.426 75.5243C269.488 74.9438 270.007 74.4877 270.566 74.4877H283.006C283.586 74.4877 284.001 74.9438 283.939 75.5243C283.876 76.1048 283.358 76.5609 282.798 76.5609H270.359C269.779 76.5609 269.364 76.1048 269.426 75.5243Z" fill="#253640"/>
<g filter="url(#filter6_d_3528_3174)">
<path d="M413.802 121.329H328.291C324.002 121.329 320.674 117.66 321.185 113.491L331.704 27.502C332.134 23.98 335.187 21.3291 338.81 21.3291H424.321C428.61 21.3291 431.937 24.9978 431.426 29.167L420.907 115.156C420.477 118.678 417.425 121.329 413.802 121.329Z" fill="white"/>
</g>
<path d="M364.32 62.606H384.099V73.1918H357.634L364.32 62.606Z" fill="#D0E5F7"/>
<path d="M373.234 49.7917H384.934L384.099 56.1988L379.084 58.706L373.234 56.1988V49.7917Z" fill="#D0E5F7"/>
<path d="M358.47 73.1918H396.077L399.977 75.9775L401.649 79.8776H351.505L353.734 75.9775L358.47 73.1918Z" fill="#D0E5F7"/>
<path d="M351.505 79.8776H401.091V84.9847L400.256 92.1348H350.113L350.67 84.9847L351.505 79.8776Z" fill="#8EBFED"/>
<path d="M352.063 92.1348H359.863V96.5919H352.063V92.1348Z" fill="#8EBFED"/>
<path d="M352.063 68.7346H357.077V73.1918H352.063V68.7346Z" fill="#8EBFED"/>
<path d="M397.749 68.7346H402.763V73.1918H397.749V68.7346Z" fill="#8EBFED"/>
<path d="M389.949 92.1348H397.749V96.5919H389.949V92.1348Z" fill="#8EBFED"/>
<path d="M382.427 62.8846L374.906 73.1918H396.356L394.406 65.6703L392.177 62.8846H382.427Z" fill="#8EBFED"/>
<path fill-rule="evenodd" clip-rule="evenodd" d="M366.739 61.7146C364.145 61.7146 361.636 63.2919 360.419 65.7054L358.058 70.3738L357.698 68.7859C357.603 68.3519 357.222 68.0661 356.767 68.0661H352.236C351.654 68.0661 351.125 68.5424 351.061 69.1246L350.616 73.3589C350.553 73.9412 350.976 74.4175 351.559 74.4175H354.734C354.734 74.4175 352.607 75.3173 351.22 77.5933C349.844 79.8692 349.823 80.769 349.823 80.769L348.732 91.3548C348.605 92.5192 349.463 93.4719 350.627 93.4719L350.405 95.5891C350.278 96.7535 351.135 97.7062 352.3 97.7062H358.651C359.816 97.7062 360.864 96.7535 360.991 95.5891L361.213 93.4719H388.736L388.514 95.5891C388.387 96.7535 389.244 97.7062 390.408 97.7062H396.76C397.924 97.7062 398.972 96.7535 399.099 95.5891L399.322 93.4719C400.486 93.4719 401.534 92.5192 401.661 91.3548L402.773 80.769C402.773 80.769 402.953 79.8798 402.053 77.5933C401.153 75.3067 399.216 74.4175 399.216 74.4175H402.392C402.974 74.4175 403.503 73.9412 403.567 73.3589L404.011 69.1246C404.075 68.5424 403.651 68.0661 403.069 68.0661H398.538C398.083 68.0661 397.649 68.3625 397.459 68.7859L396.76 70.3738L395.384 65.7054C394.674 63.2919 392.504 61.7146 389.911 61.7146H382.564C381.982 61.7146 381.453 62.1909 381.389 62.7732C381.326 63.3554 381.749 63.8317 382.331 63.8317H389.837C391.573 63.8317 393.013 64.8903 393.489 66.4888L395.204 72.3004H359.202L362.134 66.4888C362.949 64.8797 364.611 63.8317 366.347 63.8317H373.852C374.434 63.8317 374.964 63.3554 375.027 62.7732C375.091 62.1909 374.667 61.7146 374.085 61.7146H366.739ZM395.924 95.5891C396.506 95.5891 397.035 95.1127 397.099 94.5305L397.215 93.4719H390.864L390.747 94.5305C390.684 95.1127 391.107 95.5891 391.689 95.5891H395.924ZM397.988 72.3639L398.951 70.1832H401.778L401.555 72.3004H398.38C398.252 72.3004 398.115 72.3215 397.998 72.3639H397.988ZM395.479 74.4175C395.479 74.4175 397.395 74.7563 398.983 76.5347C399.417 77.0216 399.83 77.8897 400.02 78.3448C400.084 78.4825 399.957 78.6518 399.809 78.6518H353.316C353.168 78.6518 353.083 78.493 353.157 78.3554C353.422 77.9002 353.983 77.0216 354.523 76.5347C356.481 74.7669 358.471 74.4175 358.471 74.4175H395.479ZM355.899 70.1832L356.407 72.3004H352.85L353.072 70.1832H355.899ZM351.961 81.8911C351.897 81.8593 351.855 81.7852 351.866 81.7005L351.94 80.9807C351.95 80.8643 352.056 80.769 352.173 80.769H358.164C358.259 80.769 358.334 80.8325 358.355 80.9172L358.746 82.6109C358.778 82.7485 358.662 82.8861 358.513 82.8861H354.861C354.205 82.8861 353.57 82.7379 353.009 82.4415L351.961 81.8911ZM393.669 82.8861C393.521 82.8861 393.436 82.7485 393.499 82.6109L394.24 80.9172C394.283 80.8325 394.367 80.769 394.452 80.769H400.444C400.56 80.769 400.645 80.8643 400.634 80.9807L400.56 81.7005C400.56 81.7852 400.497 81.8593 400.423 81.8911L399.258 82.4415C398.644 82.7379 397.977 82.8861 397.321 82.8861H393.669ZM392.187 80.769H360.429L361.065 83.5531C361.266 84.4211 362.007 85.0033 362.917 85.0033H388.799C389.71 85.0033 390.578 84.4211 390.959 83.5531L392.176 80.769H392.187ZM361.996 87.1205C360.662 87.1205 359.572 86.263 359.286 85.0033H354.639C353.983 85.0033 353.348 84.8551 352.787 84.5587L351.633 83.9447L350.966 90.2962C350.902 90.8784 351.326 91.3548 351.908 91.3548H398.485C399.068 91.3548 399.597 90.8784 399.66 90.2962L400.327 83.9447L399.036 84.5587C398.422 84.8551 397.755 85.0033 397.099 85.0033H392.451C391.901 86.263 390.62 87.1205 389.286 87.1205H361.996ZM352.744 93.4719L352.628 94.5305C352.564 95.1127 352.988 95.5891 353.57 95.5891H357.804C358.386 95.5891 358.916 95.1127 358.979 94.5305L359.096 93.4719H352.744Z" fill="#253640"/>
<path fill-rule="evenodd" clip-rule="evenodd" d="M371.904 52.1874L372.127 50.0702C372.19 49.488 372.709 49.0117 373.302 49.0117H374.36L374.699 45.8359C374.763 45.2537 375.281 44.7773 375.874 44.7773C376.467 44.7773 376.88 45.2537 376.816 45.8359L376.478 49.0117H382.829L383.168 45.8359C383.231 45.2537 383.75 44.7773 384.343 44.7773C384.936 44.7773 385.348 45.2537 385.285 45.8359L384.946 49.0117H386.005C386.587 49.0117 387.01 49.488 386.947 50.0702L386.725 52.1874C386.333 55.9242 383.252 59.0046 379.6 59.5233L379.039 64.8903C378.976 65.4725 378.457 65.9489 377.864 65.9489C377.271 65.9489 376.859 65.4725 376.922 64.8903L377.483 59.5233C373.948 59.0046 371.513 55.9242 371.904 52.1874ZM374.138 51.1288H384.724L384.607 52.1874C384.3 55.1091 381.686 57.4803 378.753 57.4803C375.821 57.4803 373.715 55.1091 374.022 52.1874L374.138 51.1288Z" fill="#253640"/>
<g filter="url(#filter7_d_3528_3174)">
<path d="M233.669 231.329H148.157C143.868 231.329 140.541 227.66 141.052 223.491L151.571 137.502C152.001 133.98 155.053 131.329 158.676 131.329H244.188C248.477 131.329 251.804 134.998 251.293 139.167L240.774 225.156C240.344 228.678 237.291 231.329 233.669 231.329V231.329Z" fill="white"/>
</g>
<path d="M179.724 198.426H208.685L212.478 164.983H183.172L179.724 198.426Z" fill="#8EBFED"/>
<path d="M183.517 164.983H212.478L212.133 167.396L180.758 192.91L183.517 164.983Z" fill="#D0E5F7"/>
<path d="M195.495 202.966C195.41 203.834 194.627 204.554 193.737 204.554C192.848 204.554 192.234 203.834 192.319 202.966C192.403 202.098 193.187 201.378 194.076 201.378C194.965 201.378 195.579 202.098 195.495 202.966Z" fill="#253640"/>
<path d="M193.081 160.622C193.144 160.029 193.674 159.564 194.245 159.564H202.714C203.307 159.564 203.73 160.029 203.667 160.622C203.603 161.215 203.074 161.681 202.503 161.681H194.013C193.42 161.681 192.996 161.215 193.06 160.622H193.081Z" fill="#253640"/>
<path d="M189.037 176.84C194.034 174.024 199.898 174.024 204.281 176.84L206.504 178.258C206.843 178.47 207.033 178.872 206.991 179.296C206.885 180.27 205.742 180.841 205.001 180.291L203.561 179.232C199.56 176.311 193.886 176.311 189.27 179.232L187.597 180.291C186.729 180.841 185.713 180.27 185.819 179.296C185.861 178.872 186.137 178.47 186.518 178.258L189.037 176.84Z" fill="#253640"/>
<path d="M196.955 189.204C196.871 190.072 196.087 190.792 195.198 190.792C194.309 190.792 193.695 190.072 193.78 189.204C193.864 188.336 194.648 187.616 195.537 187.616C196.426 187.616 197.04 188.336 196.955 189.204Z" fill="#253640"/>
<path d="M190.032 183.551C193.737 180.714 198.797 180.714 201.889 183.551C202.121 183.763 202.248 184.102 202.206 184.441V184.546C202.1 185.52 200.893 186.007 200.258 185.372C197.951 183.043 194.055 183.043 191.26 185.372C190.477 186.028 189.397 185.52 189.482 184.546V184.441C189.524 184.102 189.715 183.763 190.011 183.551H190.032Z" fill="#253640"/>
<path fill-rule="evenodd" clip-rule="evenodd" d="M182.77 208.259C179.848 208.259 177.731 205.888 178.028 202.966L182.495 160.622C182.813 157.7 185.417 155.329 188.338 155.329H209.51C212.432 155.329 214.549 157.7 214.253 160.622L209.807 202.966C209.489 205.888 206.885 208.259 203.963 208.259H182.77ZM211.797 163.798L212.136 160.622C212.326 158.865 211.056 157.446 209.299 157.446H188.106C186.348 157.446 184.782 158.865 184.591 160.622L184.252 163.798H211.797ZM184.041 165.915H211.564L208.219 197.673H180.717L184.041 165.915ZM208.007 199.79L207.668 202.966C207.478 204.723 205.911 206.142 204.154 206.142H183.003C181.246 206.142 179.976 204.723 180.166 202.966L180.505 199.79H208.007Z" fill="#253640"/>
<g filter="url(#filter8_d_3528_3174)">
<path d="M344.013 231.329H258.502C254.213 231.329 250.886 227.66 251.397 223.491L261.916 137.502C262.346 133.98 265.398 131.329 269.021 131.329H354.532C358.821 131.329 362.148 134.998 361.638 139.167L351.119 225.156C350.689 228.678 347.636 231.329 344.013 231.329Z" fill="white"/>
</g>
<path d="M280.045 199.56L282.831 174.767H321.274L318.767 199.56H280.045Z" fill="#D0E5F7"/>
<path d="M283.667 166.967L282.831 174.488L332.139 175.324L332.975 166.967H327.124V162.51H314.867V166.967H302.053V162.51H290.353L289.238 166.967H283.667Z" fill="#D0E5F7"/>
<path d="M290.631 199.56L306.231 166.967L332.975 166.967L329.353 199.56H290.631Z" fill="#8EBFED"/>
<path d="M318.182 181.279C318.242 180.709 318.754 180.247 319.326 180.247C319.898 180.247 320.312 180.709 320.252 181.279L319.708 186.438H324.883C325.455 186.438 325.869 186.9 325.81 187.47C325.75 188.04 325.238 188.502 324.666 188.502H319.491L318.947 193.662C318.887 194.232 318.375 194.693 317.803 194.693C317.231 194.693 316.817 194.232 316.877 193.662L317.421 188.502H312.246C311.674 188.502 311.26 188.04 311.32 187.47C311.379 186.9 311.891 186.438 312.463 186.438H317.638L318.182 181.279Z" fill="#253640"/>
<path d="M300.044 186.437C300.616 186.437 301.03 186.899 300.971 187.469C300.911 188.039 300.399 188.501 299.827 188.501H287.408C286.836 188.501 286.422 188.039 286.482 187.469C286.541 186.899 287.054 186.437 287.626 186.437H300.044Z" fill="#253640"/>
<path fill-rule="evenodd" clip-rule="evenodd" d="M289.94 161.675C289.558 161.675 289.213 161.964 289.135 162.336L289.134 162.342C289.13 162.366 289.126 162.388 289.124 162.412L288.766 165.802H283.296C282.99 165.802 282.708 165.988 282.568 166.252C282.521 166.341 282.489 166.438 282.479 166.539L278.935 200.144C278.925 200.246 278.935 200.342 278.963 200.431C279.047 200.696 279.291 200.881 279.597 200.881H329.864C330.274 200.881 330.638 200.551 330.682 200.144L334.224 166.538C334.266 166.131 333.97 165.801 333.562 165.801H328.092L328.45 162.411C328.492 162.004 328.197 161.674 327.788 161.674H314.778C314.687 161.674 314.598 161.69 314.515 161.72C314.222 161.825 313.994 162.095 313.96 162.412L313.898 163.002V163.004L313.604 165.802H303.255L303.613 162.412C303.655 162.005 303.359 161.675 302.951 161.675H289.94ZM331.362 174.057L332.015 167.866H284.408L283.756 174.057H331.362ZM331.145 176.12H283.538L281.145 198.818H328.752L331.145 176.12ZM315.891 163.739H326.24L326.022 165.802H315.674L315.891 163.739ZM290.835 165.802L291.052 163.739H301.401L301.184 165.802H290.835Z" fill="#253640"/>
<g filter="url(#filter9_d_3528_3174)">
<path d="M454.358 231.329H368.847C364.558 231.329 361.231 227.66 361.741 223.491L372.26 137.502C372.69 133.98 375.743 131.329 379.366 131.329H464.877C469.166 131.329 472.493 134.998 471.982 139.167L461.463 225.156C461.033 228.678 457.981 231.329 454.358 231.329Z" fill="white"/>
</g>
<path d="M409.452 156.17L401.652 168.985L410.566 173.72L418.088 161.185L413.631 156.17H409.452Z" fill="#8EBFED"/>
<path d="M400.538 201.578L397.473 196.563L400.538 190.992H413.631L413.073 201.299L400.538 201.578Z" fill="#8EBFED"/>
<path d="M436.474 172.049L426.445 177.899L432.852 189.32L439.538 187.37L442.324 182.356L436.474 172.049Z" fill="#8EBFED"/>
<path d="M420.873 167.035L413.909 155.892L430.066 157.285L432.016 160.07L435.916 159.513L428.674 170.656L418.366 170.377L420.873 167.035Z" fill="#D0E5F7"/>
<path d="M419.202 195.17L425.888 186.535L426.724 189.878H433.409L439.538 187.649L430.066 200.185L427.838 201.578H424.495L423.938 205.478L419.202 195.17Z" fill="#D0E5F7"/>
<path d="M404.159 175.949L409.173 185.142H405.273L396.916 196.285L392.738 184.585L395.245 179.013L392.738 175.949H404.159Z" fill="#D0E5F7"/>
<path fill-rule="evenodd" clip-rule="evenodd" d="M408.98 158.409L403.019 169.06L410.262 172.438L416.593 161.247C415.831 160.061 414.994 159.013 414.126 158.229C413.131 157.329 412.189 156.884 411.352 156.884C410.812 156.884 410.315 157.107 409.87 157.435C409.425 157.763 409.108 158.165 408.97 158.398L408.98 158.409ZM416.021 156.948C417.038 157.954 417.959 159.203 418.753 160.505C420.151 162.782 421.231 165.291 421.845 167.038C421.982 167.44 421.845 167.917 421.506 168.224L419.992 169.59H428.452L434.286 160.611L432.348 161.088C432.02 161.162 431.692 161.088 431.459 160.897C431.226 160.696 431.141 160.061 431.141 160.061C431.141 160.061 430.781 159.298 430.559 159.023C430.114 158.473 429.532 158.049 428.992 157.911C427.456 157.52 424.248 157.255 420.733 157.096C419.145 157.022 417.525 156.969 416.011 156.937L416.021 156.948ZM417.779 163.279L411.553 174.28C411.257 174.81 410.611 175.043 410.103 174.81L401.018 170.575C400.775 170.458 400.595 170.246 400.521 169.982C400.447 169.717 400.489 169.42 400.637 169.166L407.159 157.52L407.181 157.488C407.466 157.011 407.996 156.366 408.716 155.815C409.446 155.264 410.431 154.777 411.585 154.777C413.893 154.777 417.557 154.83 421.061 154.989C424.524 155.148 427.965 155.413 429.733 155.868C430.802 156.143 431.692 156.874 432.284 157.604C432.592 157.975 432.846 158.377 433.015 158.769L433.036 158.811L436.414 157.985C436.837 157.88 437.25 158.028 437.473 158.367C437.695 158.695 437.684 159.15 437.441 159.521L429.86 171.167C429.637 171.506 429.256 171.718 428.875 171.718H417.228C416.805 171.718 416.445 171.464 416.318 171.062C416.191 170.67 416.339 170.215 416.667 169.907L419.6 167.26C419.155 166.096 418.541 164.688 417.79 163.279H417.779Z" fill="#253640"/>
<path fill-rule="evenodd" clip-rule="evenodd" d="M435.778 170.839C436.297 170.511 436.943 170.649 437.218 171.136L442.565 180.665C442.565 180.665 442.608 180.739 442.618 180.781C443.126 182.062 443.084 183.1 442.618 184.169C442.407 184.656 442.121 185.112 441.845 185.556C441.761 185.694 441.676 185.821 441.581 185.959C441.369 186.287 441.147 186.626 440.903 187.018C440.458 187.748 439.992 188.542 439.516 189.368C437.97 192.015 436.234 195.011 434.275 197.415C431.977 200.252 429.108 202.614 425.614 202.529L425.18 206.648C425.127 207.135 424.756 207.558 424.28 207.675C423.804 207.791 423.327 207.579 423.147 207.156L418.023 195.509C417.874 195.16 417.938 194.747 418.181 194.418L425.54 184.889C425.836 184.498 426.345 184.328 426.768 184.466C427.202 184.603 427.467 185.016 427.414 185.482L427.054 188.86C428.113 189.05 429.542 189.156 431.12 189.05L425.138 178.674C425 178.441 424.979 178.155 425.053 177.88C425.138 177.605 425.328 177.361 425.572 177.203L435.768 170.85L435.778 170.839ZM433.491 188.712C435.133 188.352 436.784 187.706 438.277 186.658C438.923 186.202 439.421 185.578 439.855 184.911C439.94 184.783 440.014 184.667 440.088 184.551C440.363 184.116 440.554 183.799 440.681 183.502C440.882 183.036 440.956 182.581 440.659 181.777L435.831 173.19L427.53 178.357L433.491 188.701V188.712ZM436.975 189.707C435.63 190.31 434.264 190.702 432.962 190.924C429.945 191.454 427.16 191.157 425.551 190.744C425.095 190.628 424.809 190.204 424.852 189.717L424.926 188.976L420.225 195.064L423.496 202.508L423.613 201.364C423.645 201.047 423.814 200.75 424.079 200.549C424.344 200.348 424.672 200.263 424.968 200.316C427.774 200.835 430.241 199.172 432.666 196.187C434.233 194.26 435.63 191.962 436.964 189.696L436.975 189.707Z" fill="#253640"/>
<path fill-rule="evenodd" clip-rule="evenodd" d="M391.479 175.551C391.68 175.159 392.093 174.894 392.527 174.894H404.174C404.523 174.894 404.841 175.074 405.01 175.371L410.357 184.9C410.569 185.281 410.505 185.768 410.187 186.128C409.88 186.488 409.383 186.636 408.97 186.488L406.503 185.641C405.01 187.018 403.708 188.352 402.564 189.717H414.253C414.836 189.717 415.259 190.194 415.196 190.776L414.084 201.364C414.02 201.946 413.502 202.423 412.909 202.423H401.283C400.584 202.423 399.758 202.052 398.975 201.332C398.17 200.591 397.228 198.812 396.339 197.129C394.57 193.783 393.512 191.676 392.654 188.214C391.892 185.154 391.754 181.734 393.829 179.182L391.585 176.705C391.309 176.398 391.267 175.943 391.479 175.551ZM398.689 196.885C398.901 198.209 399.949 199.204 400.5 199.702C400.785 199.967 401.04 200.125 401.22 200.21C401.389 200.284 401.505 200.305 401.505 200.305H412.093L412.983 191.835H400.987C399.801 193.582 398.498 195.689 398.7 196.885H398.689ZM397.334 194.228C397.916 192.841 398.753 191.464 399.631 190.226C401.294 187.896 403.295 185.821 405.666 183.672C405.984 183.386 406.408 183.291 406.778 183.418L407.022 183.502L403.379 177.012H394.856L396.084 178.378C396.455 178.791 396.381 179.458 395.926 179.871C394.115 181.512 393.882 184.191 394.708 187.505C395.28 189.802 396.307 192.153 397.334 194.217V194.228Z" fill="#253640"/>
<path d="M845.311 268.874L844.182 280.832C844.143 281.169 844.371 281.478 844.669 281.496L850.613 281.863C850.87 281.879 851.089 281.673 851.126 281.385L852.232 270.518L845.311 268.875V268.874Z" fill="white"/>
<path d="M850.642 282.509C850.619 282.509 850.595 282.509 850.574 282.508L844.63 282.14C844.32 282.12 844.036 281.974 843.83 281.729C843.608 281.465 843.503 281.11 843.542 280.76L844.669 268.815C844.686 268.628 844.784 268.461 844.935 268.352C845.087 268.243 845.278 268.206 845.461 268.249L852.382 269.891C852.697 269.965 852.907 270.263 852.874 270.584L851.769 281.451C851.691 282.072 851.214 282.511 850.644 282.511L850.642 282.509ZM844.828 280.859L850.496 281.21L851.531 271.014L845.881 269.673L844.826 280.859H844.828Z" fill="black"/>
<path d="M843.244 277.737C842.849 279.149 842.016 283.13 841.668 285.523C841.45 287.026 842.399 288.448 843.855 288.841C847.968 289.952 857.802 289.905 865.988 290.265C866.548 290.291 867.581 290.016 868.041 288.66C869.599 284.058 860.995 282.634 852.49 277.954C852.323 277.863 852.12 277.871 851.965 277.982C851.867 278.052 851.743 278.137 851.595 278.231C850.116 279.171 847.657 279.172 846.155 278.27L844.458 277.25C843.993 276.97 843.392 277.211 843.244 277.737V277.737Z" fill="#D6E1E7"/>
<path d="M866.06 290.913C866.027 290.913 865.994 290.913 865.961 290.911C863.869 290.82 861.638 290.752 859.478 290.688C852.969 290.493 846.821 290.31 843.688 289.464C841.91 288.983 840.768 287.249 841.032 285.43C841.38 283.037 842.213 279.036 842.624 277.561C842.748 277.116 843.065 276.762 843.494 276.591C843.924 276.419 844.394 276.458 844.789 276.696L846.486 277.715C847.799 278.505 849.981 278.49 851.249 277.684C851.385 277.598 851.5 277.519 851.59 277.454C851.948 277.2 852.413 277.174 852.802 277.386C855.355 278.791 857.943 279.91 860.227 280.898C865.648 283.243 869.93 285.095 868.654 288.864C868.14 290.38 866.959 290.909 866.06 290.909V290.913ZM844.038 277.779C844.013 277.779 843.992 277.785 843.974 277.793C843.937 277.809 843.889 277.84 843.869 277.912C843.47 279.338 842.643 283.331 842.311 285.619C842.139 286.792 842.879 287.911 844.027 288.22C847.013 289.028 853.37 289.217 859.519 289.399C861.682 289.464 863.918 289.53 866.019 289.623C866.183 289.631 867.043 289.61 867.434 288.456C868.288 285.936 865.218 284.467 859.717 282.087C857.431 281.099 854.843 279.978 852.263 278.565C852.172 278.628 852.067 278.7 851.944 278.778C850.284 279.832 847.539 279.854 845.825 278.824L844.128 277.805C844.097 277.785 844.066 277.779 844.038 277.779V277.779Z" fill="black"/>
<path d="M841.422 286.609C841.414 286.65 841.408 286.679 841.406 286.693C841.188 288.195 842.616 289.119 843.982 289.759C848.035 291.658 864.401 290.57 865.033 290.528C865.047 290.528 865.055 290.528 865.068 290.528C865.273 290.532 867.349 290.532 867.948 289.24C868.022 289.08 868.069 288.854 868.096 288.642C868.143 288.298 868.117 287.946 868.041 287.607C867.979 287.331 867.707 287.158 867.432 287.228C864.395 288.004 857.301 288.261 850.212 287.481C845.5 286.963 843.453 285.936 842.361 285.284C842.064 285.107 841.682 285.278 841.614 285.62C841.558 285.907 841.49 286.255 841.42 286.609H841.422Z" fill="white"/>
<path d="M854.764 291.526C850.312 291.526 845.693 291.273 843.708 290.341C842.817 289.923 840.447 288.812 840.768 286.598C840.772 286.57 840.778 286.533 840.789 286.479L840.984 285.492C841.058 285.125 841.303 284.815 841.645 284.664C841.984 284.514 842.377 284.537 842.694 284.726C843.817 285.397 845.825 286.345 850.287 286.835C857.577 287.637 864.481 287.312 867.275 286.598C867.575 286.522 867.886 286.568 868.151 286.73C868.413 286.891 868.604 287.158 868.672 287.462C868.769 287.893 868.791 288.318 868.736 288.722C868.693 289.049 868.625 289.306 868.534 289.507C867.783 291.127 865.51 291.176 865.059 291.168C864.16 291.23 859.56 291.524 854.764 291.524V291.526ZM842.212 285.94L842.056 286.732V286.736L842.044 286.794C841.918 287.66 842.601 288.397 844.257 289.174C847.374 290.635 859.181 290.277 864.991 289.882C865.008 289.882 865.065 289.88 865.08 289.88C865.705 289.886 867.018 289.713 867.364 288.966C867.376 288.938 867.423 288.825 867.458 288.555C867.485 288.343 867.481 288.119 867.442 287.888C864.448 288.604 857.461 288.925 850.146 288.119C845.656 287.625 843.469 286.662 842.214 285.94H842.212Z" fill="black"/>
<path d="M853.075 282.319C852.88 282.319 852.688 282.231 852.561 282.064C852.345 281.78 852.402 281.375 852.684 281.159L855.167 279.272C855.451 279.056 855.853 279.11 856.071 279.395C856.287 279.679 856.231 280.083 855.949 280.299L853.466 282.187C853.349 282.276 853.211 282.319 853.075 282.319V282.319Z" fill="black"/>
<path d="M856.374 283.669C856.178 283.669 855.985 283.58 855.857 283.411C855.643 283.125 855.701 282.722 855.985 282.508L858.157 280.879C858.443 280.665 858.845 280.723 859.059 281.008C859.273 281.294 859.215 281.696 858.931 281.91L856.759 283.539C856.643 283.627 856.508 283.667 856.372 283.667L856.374 283.669Z" fill="black"/>
<path d="M827.638 158.275C827.638 158.275 822.92 167.705 821.334 177.638C819.857 186.886 814.425 224.966 801.186 255.51C799.686 258.974 801.417 262.577 805.108 263.379C806.585 263.7 807.204 263.175 808.482 262.554C809.142 262.235 810.234 261.289 810.234 261.289C810.234 261.289 833.67 241.725 843.228 190.392C849.374 157.374 848.351 159.993 848.351 159.993L827.638 158.275V158.275Z" fill="black"/>
<path d="M834.22 162.591C834.22 162.591 831.469 180.51 836.672 193.766C841.676 206.513 844.871 256.487 843.005 270.925C842.888 271.834 843.519 272.664 844.427 272.791C846.704 273.11 850.808 273.544 853.615 273.021C854.131 272.923 854.547 272.546 854.676 272.036C856.53 264.71 871.9 198.496 861.062 164.564L834.22 162.591V162.591Z" fill="black"/>
<path d="M839.377 210.433C839.047 210.433 838.765 210.18 838.735 209.844C838.73 209.77 838.056 202.347 835.402 195.34C834.414 192.733 833.715 190.032 833.379 187.532C833.332 187.179 833.579 186.855 833.931 186.806C834.287 186.757 834.61 187.006 834.657 187.358C834.98 189.763 835.655 192.365 836.609 194.881C839.329 202.059 840.014 209.653 840.022 209.729C840.053 210.083 839.79 210.396 839.434 210.427C839.414 210.427 839.397 210.429 839.377 210.429V210.433Z" fill="white"/>
<path d="M805.084 269.177C805.806 265.568 806 264.875 807.734 262.093C809.024 260.024 806.01 256.859 804.414 256.619C801.159 255.892 802.058 257.084 799.015 260.982L796.752 263.737C796.752 263.737 804.449 272.331 805.082 269.177H805.084Z" fill="white"/>
<path d="M804.386 270.51C802.136 270.51 797.651 265.706 796.274 264.167C796.062 263.929 796.054 263.573 796.256 263.326L798.519 260.571C799.994 258.682 802.123 255.222 802.144 255.187C802.331 254.884 802.728 254.79 803.031 254.975C803.335 255.162 803.43 255.559 803.243 255.862C803.154 256.006 801.056 259.419 799.525 261.379L797.607 263.717C800.545 266.92 803.718 269.504 804.395 269.224C804.395 269.224 804.426 269.179 804.452 269.053C805.1 265.819 806.176 263.143 808.053 260.104C808.242 259.801 808.639 259.707 808.941 259.894C809.244 260.081 809.337 260.48 809.151 260.781C807.359 263.68 806.331 266.229 805.716 269.304C805.551 270.127 805.028 270.385 804.732 270.467C804.625 270.496 804.508 270.51 804.387 270.51H804.386Z" fill="black"/>
<path d="M805.504 267.823L802.424 263.181C800.986 261.015 797.929 260.692 796.071 262.509L792.545 265.465C792.545 265.465 791.872 267.496 792.086 268.808C792.364 270.516 792.915 272.948 793.979 275.361C795.616 279.072 800.145 286.528 801.758 289.147C802.097 289.695 802.941 290.238 803.531 289.976C804.229 289.662 804.955 289.1 805.654 288.444C806.737 287.43 806.374 282.685 805.984 279.383C805.735 277.266 805.92 271.861 806.012 269.635C806.039 268.993 805.86 268.36 805.506 267.823H805.504Z" fill="#D6E1E7"/>
<path d="M803.186 290.693C802.374 290.693 801.567 290.075 801.205 289.487C799.395 286.549 795.013 279.316 793.385 275.623C792.28 273.117 791.719 270.592 791.445 268.914C791.208 267.463 791.9 265.354 791.929 265.264L791.988 265.091L795.636 262.034C796.658 261.046 798.051 260.563 799.473 260.713C800.897 260.863 802.17 261.633 802.96 262.826L806.04 267.469C806.474 268.123 806.686 268.881 806.655 269.664C806.563 271.874 806.381 277.24 806.624 279.311C807.49 286.666 806.735 288.317 806.093 288.919C805.24 289.716 804.487 290.257 803.791 290.569C803.594 290.656 803.39 290.695 803.186 290.695V290.693ZM793.101 265.84C792.908 266.478 792.579 267.85 792.719 268.706C792.982 270.31 793.515 272.722 794.566 275.104C796.208 278.826 800.905 286.537 802.304 288.812C802.53 289.178 803.079 289.473 803.263 289.39C803.82 289.141 804.474 288.666 805.209 287.977C805.38 287.817 806.188 286.656 805.342 279.46C805.087 277.299 805.273 271.851 805.365 269.609C805.386 269.101 805.248 268.607 804.966 268.181L801.886 263.538C801.308 262.667 800.378 262.104 799.337 261.993C798.296 261.884 797.269 262.241 796.519 262.972L796.483 263.005L793.101 265.84V265.84Z" fill="black"/>
<path d="M805.87 273.761C805.814 273.761 805.755 273.754 805.699 273.738L802.384 272.828C802.039 272.734 801.839 272.378 801.932 272.036C802.027 271.691 802.38 271.491 802.726 271.584L806.042 272.495C806.386 272.588 806.586 272.944 806.493 273.287C806.415 273.573 806.154 273.761 805.872 273.761H805.87Z" fill="black"/>
<path d="M805.624 276.719C805.568 276.719 805.509 276.711 805.453 276.695L802.137 275.785C801.793 275.691 801.593 275.335 801.686 274.993C801.781 274.648 802.135 274.448 802.478 274.541L805.793 275.452C806.138 275.545 806.338 275.902 806.245 276.244C806.167 276.53 805.906 276.719 805.624 276.719V276.719Z" fill="black"/>
<path d="M802.242 290.22C802.581 290.22 802.902 290.166 803.194 290.067C804.184 289.726 806.661 288.989 806.385 285.442C806.099 281.766 803.299 279.894 801.256 277.482C799.697 275.641 799.853 267.943 799.363 266.436C798.483 263.733 794.531 263.326 792.545 265.467C791.29 266.819 791.142 269.753 791.265 271.913C791.494 275.956 793.874 284.002 796.88 287.889C798.347 289.785 800.61 290.222 802.244 290.222L802.242 290.22Z" fill="white"/>
<path d="M802.242 290.865C800.795 290.865 798.106 290.528 796.368 288.283C793.191 284.175 790.84 275.865 790.618 271.948C790.511 270.063 790.558 266.656 792.07 265.027C793.249 263.756 795.142 263.186 796.895 263.572C798.411 263.906 799.532 264.877 799.975 266.235C800.166 266.823 800.258 268.049 800.374 269.6C800.565 272.152 800.855 276.009 801.748 277.065C802.205 277.606 802.719 278.136 803.215 278.647C804.972 280.461 806.79 282.334 807.029 285.393C807.336 289.337 804.544 290.289 803.491 290.649L803.406 290.678C803.04 290.804 802.649 290.867 802.244 290.867L802.242 290.865ZM795.784 264.741C794.736 264.741 793.706 265.159 793.016 265.905C792.148 266.838 791.743 269.014 791.906 271.876C792.119 275.629 794.36 283.58 797.388 287.493C798.789 289.304 801.03 289.575 802.242 289.575C802.503 289.575 802.754 289.534 802.984 289.456L803.073 289.425C804.085 289.08 805.968 288.438 805.741 285.492C805.538 282.897 803.958 281.268 802.287 279.544C801.775 279.017 801.248 278.472 800.762 277.898C799.596 276.523 799.314 272.738 799.086 269.695C798.985 268.346 798.89 267.072 798.748 266.632C798.45 265.72 797.676 265.062 796.617 264.83C796.341 264.77 796.063 264.741 795.784 264.741Z" fill="black"/>
<path d="M802.243 290.865C801.83 290.865 801.418 290.84 801.019 290.787C800.665 290.74 800.416 290.417 800.462 290.065C800.507 289.711 800.832 289.462 801.184 289.509C801.529 289.553 801.883 289.575 802.241 289.575C802.85 289.575 803.389 289.355 803.722 288.974C803.996 288.66 804.107 288.256 804.045 287.806C803.564 284.339 801.698 282.553 799.538 280.482C797.557 278.585 797.104 272.779 796.861 269.66C796.806 268.96 796.75 268.236 796.707 268.078C796.528 267.426 795.473 266.603 794.327 266.477C793.654 266.403 792.724 266.545 792.138 267.65C791.971 267.965 791.582 268.084 791.267 267.919C790.952 267.751 790.831 267.362 790.998 267.047C791.708 265.704 792.973 265.031 794.469 265.195C796.081 265.372 797.61 266.488 797.952 267.738C798.024 268 798.067 268.514 798.149 269.561C798.363 272.298 798.807 277.994 800.431 279.552C802.669 281.696 804.782 283.72 805.323 287.631C805.438 288.448 805.214 289.226 804.694 289.822C804.117 290.485 803.221 290.867 802.241 290.867L802.243 290.865Z" fill="black"/>
<path d="M859.388 91.0942C860.236 91.3822 860.631 93.1275 860.765 94.0129C861.207 96.9276 859.683 103.765 857.568 104.212C855.484 104.652 855.662 103.712 854.072 104.594C852.803 105.298 852.002 108.62 851.482 111.412C851.356 112.097 854.947 113.221 855.012 113.391C855.158 113.774 853.624 115.84 846.606 114.957C839.955 114.12 837.212 109.912 837.187 109.594C837.183 109.55 837.336 109.511 837.572 109.48C839.165 109.269 840.621 108.464 841.668 107.246L842.36 106.442C844.396 104.078 846.155 101.485 847.522 98.6827C849.437 94.7561 853.364 89.0492 859.388 91.0942V91.0942Z" fill="white"/>
<path d="M849.767 115.817C848.839 115.817 847.767 115.751 846.528 115.595C839.696 114.735 836.6 110.322 836.546 109.645C836.49 108.97 837.243 108.871 837.49 108.839C838.912 108.653 840.223 107.937 841.181 106.826L841.873 106.022C843.942 103.619 845.648 101.054 846.944 98.4005C850.24 91.6448 854.731 88.8332 859.595 90.4832C860.716 90.8646 861.197 92.5593 861.403 93.9155C861.868 96.9859 860.383 104.277 857.7 104.843C856.63 105.069 856.054 104.967 855.634 104.891C855.233 104.82 855.05 104.788 854.385 105.156C853.842 105.458 853.017 106.779 852.155 111.332C852.552 111.657 853.883 112.194 854.412 112.408C855.311 112.77 855.498 112.846 855.616 113.161C855.735 113.474 855.647 113.838 855.373 114.19C855.031 114.626 853.725 115.819 849.767 115.819V115.817ZM838.212 110.024C839.196 111.254 841.907 113.715 846.689 114.317C851.238 114.889 853.322 114.171 854.067 113.661C854.021 113.642 853.972 113.622 853.927 113.605C851.896 112.785 850.676 112.221 850.847 111.295C851.657 106.938 852.554 104.697 853.758 104.03C854.75 103.479 855.233 103.51 855.86 103.623C856.227 103.689 856.607 103.755 857.434 103.582C858.854 103.282 860.592 97.1746 860.127 94.1101C859.918 92.7364 859.482 91.8083 859.181 91.7071C853.836 89.8936 850.207 94.6549 848.104 98.9686C846.759 101.724 844.992 104.382 842.852 106.866L842.159 107.67C841.12 108.876 839.733 109.701 838.212 110.026V110.024Z" fill="black"/>
<path d="M855.585 98.6825C855.556 98.6825 855.527 98.6806 855.497 98.6767C854.025 98.4763 853.2 96.9352 853.038 95.4973C852.884 94.1411 853.289 93.1099 854.093 92.8083C855.492 92.281 856.593 93.7559 857.021 94.7112C857.167 95.0362 857.021 95.4175 856.696 95.5635C856.369 95.7094 855.99 95.5635 855.844 95.2385C855.667 94.8474 855.029 93.8318 854.546 94.0147C854.447 94.0516 854.225 94.5205 854.318 95.3514C854.421 96.262 854.888 97.2913 855.669 97.3983C856.023 97.447 856.268 97.7719 856.221 98.1241C856.177 98.4471 855.9 98.6825 855.583 98.6825H855.585Z" fill="black"/>
<path d="M861.226 84.3658C861.212 84.3463 861.198 84.3249 861.183 84.3055C858.363 80.342 854.929 78.4877 851.544 78.3359C851.476 78.332 851.407 78.334 851.339 78.332C851.168 78.3281 850.997 78.3281 850.826 78.332C850.816 78.332 850.806 78.332 850.796 78.332C848.687 78.3943 846.617 79.1084 844.747 80.3789C843.58 81.1358 842.799 81.9375 842.064 82.5932C837.649 86.5275 837.482 89.3469 832.516 90.7673C830.109 91.4561 823.445 88.2067 817.003 92.9913C809.344 98.6826 814.691 103.514 808.488 110.069C802.197 116.718 798.041 112.77 793.136 119.627C787.316 127.766 789.795 138.512 798.925 145.581C808.525 153.016 820.161 154.199 826.589 147.865C834.649 139.929 831.586 110.752 831.586 110.752C833.473 110.342 837.021 110.108 839.725 109.982C842.066 109.873 844.237 108.736 845.658 106.876C848.197 103.549 852.343 97.2369 853.618 94.0401C853.742 93.7307 854.314 92.6236 855.13 93.1333C855.663 93.468 856.153 95.5383 856.702 95.3651C857.564 95.0927 857.321 92.2364 859.65 91.746C863.014 91.0378 862.917 86.796 861.224 84.3619L861.226 84.3658Z" fill="black"/>
<path d="M879.558 123.723C878.844 128.04 876.16 137.216 875.686 137.067C875.077 136.874 872.769 132.543 872.769 132.543L863.863 140.267C863.863 140.267 873.176 154.368 878.77 150.442C882.78 147.626 883.821 128.567 884.033 125.17C884.058 124.764 884.167 124.367 884.381 124.02C884.42 123.958 887.938 120.919 886.524 118.132C886.393 117.876 885.911 117.039 885.842 116.765C885.747 116.385 889.971 112.801 889.273 111.122C888.884 110.184 884.218 113.885 883.118 114.698C882.33 115.282 881.377 116.2 880.503 117.185C878.285 119.681 879.618 123.37 879.56 123.723H879.558Z" fill="white"/>
<path d="M876.578 151.778C876.254 151.778 875.917 151.745 875.573 151.681C869.982 150.62 863.594 141.032 863.324 140.623L863.013 140.15L872.957 131.525L873.339 132.239C874.082 133.634 875.006 135.216 875.571 136.01C876.401 133.938 878.3 127.332 878.913 123.678C878.904 123.606 878.88 123.501 878.853 123.366C878.616 122.185 877.985 119.047 880.021 116.757C880.958 115.702 881.947 114.764 882.735 114.18C882.859 114.089 883.031 113.959 883.235 113.803C886.922 111.005 888.444 110.135 889.28 110.361C889.555 110.435 889.763 110.618 889.87 110.873C890.461 112.295 888.94 114.149 887.191 116.085C886.969 116.33 886.706 116.62 886.556 116.807C886.665 117.033 886.844 117.362 886.936 117.529C887.006 117.659 887.066 117.768 887.101 117.838C888.479 120.549 886.023 123.339 884.897 124.417C884.77 124.643 884.698 124.907 884.679 125.207L884.655 125.59C883.739 140.503 881.885 149.04 879.143 150.965C878.376 151.502 877.518 151.772 876.58 151.772L876.578 151.778ZM864.721 140.378C866.068 142.304 871.411 149.578 875.814 150.412C876.808 150.601 877.653 150.438 878.4 149.914C879.754 148.965 882.2 144.53 883.365 125.516L883.389 125.131C883.422 124.59 883.572 124.104 883.832 123.682C883.877 123.608 883.922 123.565 883.996 123.495C884.912 122.619 886.936 120.372 885.947 118.426C885.916 118.364 885.862 118.265 885.799 118.15C885.451 117.51 885.276 117.163 885.216 116.922C885.103 116.473 885.365 116.183 886.231 115.223C886.903 114.48 888.56 112.645 888.702 111.69C888.13 111.91 886.842 112.684 884.013 114.832C883.803 114.992 883.628 115.124 883.501 115.219C882.782 115.753 881.865 116.624 880.984 117.615C879.376 119.424 879.896 122.008 880.118 123.113C880.192 123.481 880.225 123.65 880.196 123.829C879.662 127.052 877.08 136.987 876.071 137.607C875.896 137.714 875.683 137.742 875.495 137.683C875.273 137.613 874.701 137.432 872.586 133.558L864.723 140.378H864.721Z" fill="black"/>
<path d="M809.596 171.928C809.428 172.401 809.851 173.331 809.79 173.717C809.57 175.127 807.453 177.106 805.895 178.394C804.655 179.418 803.924 180.939 803.92 182.546C803.92 182.926 803.937 183.336 803.961 183.782C804.013 184.8 803.682 185.339 803.239 185.613C802.365 186.15 801.229 185.523 801.118 184.504C800.877 182.276 800.476 177.659 801.106 176.032C801.521 174.962 802.856 173.561 804.107 172.413C805.336 171.284 806.017 169.685 806.01 168.017C805.984 162.25 809.216 145.412 813.01 133.591L822.498 138.81C822.498 138.81 815.826 154.426 809.596 171.93V171.928Z" fill="white"/>
<path d="M802.546 186.454C802.243 186.454 801.937 186.384 801.653 186.243C800.995 185.92 800.556 185.296 800.476 184.572C800.139 181.472 799.871 177.435 800.505 175.797C800.887 174.812 801.951 173.514 803.671 171.936C804.755 170.942 805.371 169.514 805.366 168.018C805.34 162.334 808.471 145.622 812.398 133.391C812.456 133.208 812.594 133.06 812.773 132.988C812.952 132.916 813.154 132.93 813.322 133.023L822.809 138.242C823.099 138.401 823.222 138.755 823.091 139.061C823.025 139.217 816.357 154.858 810.205 172.141C810.177 172.265 810.267 172.652 810.316 172.863C810.399 173.221 810.471 173.53 810.427 173.818C810.23 175.088 808.843 176.797 806.303 178.892C805.202 179.803 804.566 181.136 804.562 182.548C804.562 182.918 804.58 183.327 804.601 183.749C804.675 185.175 804.081 185.848 803.574 186.162C803.258 186.356 802.904 186.454 802.544 186.454H802.546ZM813.388 134.535C809.709 146.276 806.63 162.575 806.656 168.014C806.663 169.872 805.893 171.65 804.543 172.888C803.015 174.289 802.007 175.489 801.708 176.264C801.299 177.32 801.317 180.375 801.758 184.434C801.789 184.716 801.961 184.959 802.219 185.086C802.354 185.152 802.62 185.236 802.898 185.064C803.208 184.874 803.348 184.453 803.315 183.815C803.293 183.375 803.272 182.947 803.274 182.545C803.28 180.747 804.085 179.052 805.484 177.898C807.675 176.089 809.012 174.528 809.154 173.619C809.154 173.557 809.1 173.316 809.063 173.156C808.954 172.691 808.829 172.164 808.991 171.713C814.515 156.195 820.455 141.995 821.679 139.094L813.39 134.535H813.388Z" fill="black"/>
<path d="M828.728 111.486C838.737 108.3 856.891 109.4 862.02 113.289C868.923 118.523 873.179 126.627 874.307 130.793C874.681 132.175 874.626 133.636 874.163 134.99C872.646 139.417 868.147 149.624 865.509 146.875C863.094 144.359 862.03 142.616 862.234 144.637C862.773 149.998 863.699 169.276 863.699 169.276C862.002 169.3 860.592 170.594 860.428 172.281L859.422 182.585C859.348 183.344 858.533 183.792 857.854 183.441C852.396 180.632 832.587 170.417 824.525 166.046C823.558 165.523 823.035 164.445 823.224 163.363C824.169 157.921 827.335 142.127 826.296 138.952C826.062 138.24 824.344 141.191 822.26 142.95C821.926 143.232 821.441 143.248 821.097 142.978L811.559 135.449C810.714 134.782 810.409 133.642 810.812 132.646C812.792 127.74 817.929 114.924 828.732 111.488L828.728 111.486Z" fill="#BDCFD9"/>
<path d="M858.345 184.206C858.075 184.206 857.804 184.142 857.555 184.015C851.759 181.031 832.225 170.955 824.213 166.615C823.003 165.959 822.347 164.608 822.582 163.252C822.722 162.451 822.909 161.425 823.123 160.248C824.207 154.319 826.143 143.721 825.826 140.004C825.66 140.199 825.481 140.415 825.318 140.611C824.592 141.491 823.688 142.584 822.67 143.445C822.102 143.925 821.269 143.941 820.691 143.485L811.151 135.957C810.089 135.119 809.699 133.657 810.207 132.404L810.231 132.348C812.213 127.437 817.481 114.389 828.53 110.873C838.648 107.654 857.012 108.686 862.408 112.778C869.506 118.159 873.783 126.402 874.927 130.628C875.334 132.132 875.279 133.714 874.769 135.202C874.728 135.321 870.646 147.116 866.924 147.937C866.224 148.093 865.572 147.881 865.039 147.324C864.457 146.719 863.965 146.17 863.531 145.686C863.326 145.458 863.11 145.217 862.912 145.005C863.451 150.848 864.328 169.058 864.338 169.247C864.346 169.422 864.284 169.593 864.163 169.72C864.042 169.848 863.877 169.92 863.702 169.922C862.33 169.942 861.196 170.983 861.063 172.345L860.057 182.648C860.001 183.218 859.668 183.722 859.166 183.996C858.909 184.136 858.625 184.206 858.343 184.206H858.345ZM826.155 138.197C826.207 138.197 826.26 138.203 826.314 138.212C826.591 138.265 826.812 138.467 826.906 138.751C827.77 141.394 826.141 150.934 824.396 160.48C824.182 161.653 823.995 162.674 823.855 163.474C823.715 164.282 824.106 165.089 824.83 165.48C832.831 169.815 852.354 179.885 858.147 182.869C858.332 182.965 858.491 182.899 858.551 182.865C858.612 182.832 858.756 182.733 858.777 182.525L859.783 172.222C859.958 170.43 861.303 169.014 863.023 168.7C862.859 165.371 862.067 149.451 861.591 144.707C861.546 144.27 861.464 143.454 862.085 143.182C862.752 142.888 863.262 143.456 864.496 144.828C864.924 145.305 865.408 145.844 865.975 146.435C866.251 146.723 866.473 146.721 866.652 146.682C868.646 146.243 871.942 139.491 873.555 134.788C873.981 133.545 874.026 132.223 873.687 130.968C872.59 126.913 868.475 118.996 861.634 113.809C856.586 109.981 838.551 109.044 828.927 112.104C818.455 115.435 813.354 128.075 811.433 132.832L811.41 132.889C811.118 133.615 811.342 134.459 811.959 134.945L821.497 142.474C821.598 142.553 821.74 142.548 821.843 142.46C822.773 141.676 823.635 140.631 824.33 139.792C825.227 138.707 825.645 138.199 826.159 138.199L826.155 138.197Z" fill="black"/>
<defs>
<filter id="filter0_d_3528_3174" x="775.222" y="121.329" width="130.345" height="120" filterUnits="userSpaceOnUse" color-interpolation-filters="sRGB">
<feFlood flood-opacity="0" result="BackgroundImageFix"/>
<feColorMatrix in="SourceAlpha" type="matrix" values="0 0 0 0 0 0 0 0 0 0 0 0 0 0 0 0 0 0 127 0" result="hardAlpha"/>
<feOffset/>
<feGaussianBlur stdDeviation="5"/>
<feComposite in2="hardAlpha" operator="out"/>
<feColorMatrix type="matrix" values="0 0 0 0 0 0 0 0 0 0 0 0 0 0 0 0 0 0 0.1 0"/>
<feBlend mode="normal" in2="BackgroundImageFix" result="effect1_dropShadow_3528_3174"/>
<feBlend mode="normal" in="SourceGraphic" in2="effect1_dropShadow_3528_3174" result="shape"/>
</filter>
<filter id="filter1_d_3528_3174" x="885.566" y="121.329" width="130.345" height="120" filterUnits="userSpaceOnUse" color-interpolation-filters="sRGB">
<feFlood flood-opacity="0" result="BackgroundImageFix"/>
<feColorMatrix in="SourceAlpha" type="matrix" values="0 0 0 0 0 0 0 0 0 0 0 0 0 0 0 0 0 0 127 0" result="hardAlpha"/>
<feOffset/>
<feGaussianBlur stdDeviation="5"/>
<feComposite in2="hardAlpha" operator="out"/>
<feColorMatrix type="matrix" values="0 0 0 0 0 0 0 0 0 0 0 0 0 0 0 0 0 0 0.1 0"/>
<feBlend mode="normal" in2="BackgroundImageFix" result="effect1_dropShadow_3528_3174"/>
<feBlend mode="normal" in="SourceGraphic" in2="effect1_dropShadow_3528_3174" result="shape"/>
</filter>
<filter id="filter2_d_3528_3174" x="995.911" y="121.329" width="130.345" height="120" filterUnits="userSpaceOnUse" color-interpolation-filters="sRGB">
<feFlood flood-opacity="0" result="BackgroundImageFix"/>
<feColorMatrix in="SourceAlpha" type="matrix" values="0 0 0 0 0 0 0 0 0 0 0 0 0 0 0 0 0 0 127 0" result="hardAlpha"/>
<feOffset/>
<feGaussianBlur stdDeviation="5"/>
<feComposite in2="hardAlpha" operator="out"/>
<feColorMatrix type="matrix" values="0 0 0 0 0 0 0 0 0 0 0 0 0 0 0 0 0 0 0.1 0"/>
<feBlend mode="normal" in2="BackgroundImageFix" result="effect1_dropShadow_3528_3174"/>
<feBlend mode="normal" in="SourceGraphic" in2="effect1_dropShadow_3528_3174" result="shape"/>
</filter>
<filter id="filter3_d_3528_3174" x="857.904" y="11.3291" width="130.345" height="120" filterUnits="userSpaceOnUse" color-interpolation-filters="sRGB">
<feFlood flood-opacity="0" result="BackgroundImageFix"/>
<feColorMatrix in="SourceAlpha" type="matrix" values="0 0 0 0 0 0 0 0 0 0 0 0 0 0 0 0 0 0 127 0" result="hardAlpha"/>
<feOffset/>
<feGaussianBlur stdDeviation="5"/>
<feComposite in2="hardAlpha" operator="out"/>
<feColorMatrix type="matrix" values="0 0 0 0 0 0 0 0 0 0 0 0 0 0 0 0 0 0 0.1 0"/>
<feBlend mode="normal" in2="BackgroundImageFix" result="effect1_dropShadow_3528_3174"/>
<feBlend mode="normal" in="SourceGraphic" in2="effect1_dropShadow_3528_3174" result="shape"/>
</filter>
<filter id="filter4_d_3528_3174" x="968.249" y="11.3291" width="130.345" height="120" filterUnits="userSpaceOnUse" color-interpolation-filters="sRGB">
<feFlood flood-opacity="0" result="BackgroundImageFix"/>
<feColorMatrix in="SourceAlpha" type="matrix" values="0 0 0 0 0 0 0 0 0 0 0 0 0 0 0 0 0 0 127 0" result="hardAlpha"/>
<feOffset/>
<feGaussianBlur stdDeviation="5"/>
<feComposite in2="hardAlpha" operator="out"/>
<feColorMatrix type="matrix" values="0 0 0 0 0 0 0 0 0 0 0 0 0 0 0 0 0 0 0.1 0"/>
<feBlend mode="normal" in2="BackgroundImageFix" result="effect1_dropShadow_3528_3174"/>
<feBlend mode="normal" in="SourceGraphic" in2="effect1_dropShadow_3528_3174" result="shape"/>
</filter>
<filter id="filter5_d_3528_3174" x="203" y="11.3291" width="128.133" height="120" filterUnits="userSpaceOnUse" color-interpolation-filters="sRGB">
<feFlood flood-opacity="0" result="BackgroundImageFix"/>
<feColorMatrix in="SourceAlpha" type="matrix" values="0 0 0 0 0 0 0 0 0 0 0 0 0 0 0 0 0 0 127 0" result="hardAlpha"/>
<feOffset/>
<feGaussianBlur stdDeviation="5"/>
<feComposite in2="hardAlpha" operator="out"/>
<feColorMatrix type="matrix" values="0 0 0 0 0 0 0 0 0 0 0 0 0 0 0 0 0 0 0.1 0"/>
<feBlend mode="normal" in2="BackgroundImageFix" result="effect1_dropShadow_3528_3174"/>
<feBlend mode="normal" in="SourceGraphic" in2="effect1_dropShadow_3528_3174" result="shape"/>
</filter>
<filter id="filter6_d_3528_3174" x="311.133" y="11.3291" width="130.345" height="120" filterUnits="userSpaceOnUse" color-interpolation-filters="sRGB">
<feFlood flood-opacity="0" result="BackgroundImageFix"/>
<feColorMatrix in="SourceAlpha" type="matrix" values="0 0 0 0 0 0 0 0 0 0 0 0 0 0 0 0 0 0 127 0" result="hardAlpha"/>
<feOffset/>
<feGaussianBlur stdDeviation="5"/>
<feComposite in2="hardAlpha" operator="out"/>
<feColorMatrix type="matrix" values="0 0 0 0 0 0 0 0 0 0 0 0 0 0 0 0 0 0 0.1 0"/>
<feBlend mode="normal" in2="BackgroundImageFix" result="effect1_dropShadow_3528_3174"/>
<feBlend mode="normal" in="SourceGraphic" in2="effect1_dropShadow_3528_3174" result="shape"/>
</filter>
<filter id="filter7_d_3528_3174" x="131" y="121.329" width="130.345" height="120" filterUnits="userSpaceOnUse" color-interpolation-filters="sRGB">
<feFlood flood-opacity="0" result="BackgroundImageFix"/>
<feColorMatrix in="SourceAlpha" type="matrix" values="0 0 0 0 0 0 0 0 0 0 0 0 0 0 0 0 0 0 127 0" result="hardAlpha"/>
<feOffset/>
<feGaussianBlur stdDeviation="5"/>
<feComposite in2="hardAlpha" operator="out"/>
<feColorMatrix type="matrix" values="0 0 0 0 0 0 0 0 0 0 0 0 0 0 0 0 0 0 0.1 0"/>
<feBlend mode="normal" in2="BackgroundImageFix" result="effect1_dropShadow_3528_3174"/>
<feBlend mode="normal" in="SourceGraphic" in2="effect1_dropShadow_3528_3174" result="shape"/>
</filter>
<filter id="filter8_d_3528_3174" x="241.345" y="121.329" width="130.345" height="120" filterUnits="userSpaceOnUse" color-interpolation-filters="sRGB">
<feFlood flood-opacity="0" result="BackgroundImageFix"/>
<feColorMatrix in="SourceAlpha" type="matrix" values="0 0 0 0 0 0 0 0 0 0 0 0 0 0 0 0 0 0 127 0" result="hardAlpha"/>
<feOffset/>
<feGaussianBlur stdDeviation="5"/>
<feComposite in2="hardAlpha" operator="out"/>
<feColorMatrix type="matrix" values="0 0 0 0 0 0 0 0 0 0 0 0 0 0 0 0 0 0 0.1 0"/>
<feBlend mode="normal" in2="BackgroundImageFix" result="effect1_dropShadow_3528_3174"/>
<feBlend mode="normal" in="SourceGraphic" in2="effect1_dropShadow_3528_3174" result="shape"/>
</filter>
<filter id="filter9_d_3528_3174" x="351.689" y="121.329" width="130.345" height="120" filterUnits="userSpaceOnUse" color-interpolation-filters="sRGB">
<feFlood flood-opacity="0" result="BackgroundImageFix"/>
<feColorMatrix in="SourceAlpha" type="matrix" values="0 0 0 0 0 0 0 0 0 0 0 0 0 0 0 0 0 0 127 0" result="hardAlpha"/>
<feOffset/>
<feGaussianBlur stdDeviation="5"/>
<feComposite in2="hardAlpha" operator="out"/>
<feColorMatrix type="matrix" values="0 0 0 0 0 0 0 0 0 0 0 0 0 0 0 0 0 0 0.1 0"/>
<feBlend mode="normal" in2="BackgroundImageFix" result="effect1_dropShadow_3528_3174"/>
<feBlend mode="normal" in="SourceGraphic" in2="effect1_dropShadow_3528_3174" result="shape"/>
</filter>
</defs>
</svg>
